# xmcd CD database file
#
# Track frame offsets:
#	150
#	24346
#	41644
#	57800
#	82529
#	104083
#	150779
#	181806
#	220348
#
# Disc length: 3359 seconds
#
# Revision: 0
# Processed by: cddbd v1.5.2PL0 Copyright (c) Steve Scherf et al.
# Submitted via: CDex 1.70beta2
#
DISCID=610d1d09
DTITLE=Randy Oxford Band - Festival
DYEAR=2011
DGENRE=Blues
TTITLE0=Big Long Slidin' Thing
TTITLE1=My Heart is Mended
TTITLE2=Little Boys
TTITLE3=Someone Else is Steppin' In
TTITLE4=Little Bill
TTITLE5=Smooth Feeling
TTITLE6=Just Ain't My Plan
TTITLE7=Sababa
TTITLE8=Hey Baby
EXTD=YEAR: 2011
EXTT0=
EXTT1=
EXTT2=
EXTT3=
EXTT4=
EXTT5=
EXTT6=
EXTT7=
EXTT8=
PLAYORDER=
